# xmcd
#
# Track frame offsets:
#	180
#	13790
#	31019
#	45611
#	60686
#	86925
#	114354
#	134929
#	150083
#	166300
#
# Disc length: 2476 seconds
#
# Revision: 1
# Processed by: cddbd v1.5.2PL0 Copyright (c) Steve Scherf et al.
# Submitted via: audiograbber 1.83.01
#
DISCID=7a09aa0a
DTITLE=Bobby Patterson - Second Coming
DYEAR=1996
DGENRE=Soul
TTITLE0=If He's Getting the Thrills
TTITLE1=Even a Dog
TTITLE2=Break a day
TTITLE3=All we have in common
TTITLE4=You can't steal something
TTITLE5=Right Place, Wrong Time
TTITLE6=Keep your hands to yourself
TTITLE7=I'll take care of you
TTITLE8=I've Just got to forget you
TTITLE9=Fingers do the walking
EXTD=
EXTT0=
EXTT1=
EXTT2=
EXTT3=
EXTT4=
EXTT5=
EXTT6=
EXTT7=
EXTT8=
EXTT9=
PLAYORDER=
